<svg xmlns="http://www.w3.org/2000/svg" xmlns:xlink="http://www.w3.org/1999/xlink" width="500" zoomAndPan="magnify" viewBox="0 0 375 374.999991" height="500" preserveAspectRatio="xMidYMid meet" version="1.0"><defs><clipPath id="8964c45cdd"><path d="M 176 8.066406 L 213 8.066406 L 213 152 L 176 152 Z M 176 8.066406 " clip-rule="nonzero"/></clipPath><clipPath id="c0a612917f"><path d="M 21.90625 256 L 352 256 L 352 328 L 21.90625 328 Z M 21.90625 256 " clip-rule="nonzero"/></clipPath><clipPath id="4c5a67e48c"><path d="M 29 345 L 353.40625 345 L 353.40625 366.566406 L 29 366.566406 Z M 29 345 " clip-rule="nonzero"/></clipPath></defs><path fill="#578ad6" d="M 158.167969 176.269531 C 152.285156 135.195312 146.40625 94.125 140.523438 53.050781 C 140.476562 52.136719 140.488281 51.363281 140.523438 50.484375 C 140.886719 40.972656 148.59375 33.246094 158.550781 33.246094 C 168.503906 33.246094 176.578125 40.964844 176.578125 50.484375 C 176.578125 51.453125 176.78125 53.160156 176.578125 54.519531 Z M 158.167969 176.269531 " fill-opacity="1" fill-rule="evenodd"/><g clip-path="url(#8964c45cdd)"><path fill="#578ad6" d="M 193.835938 151.089844 C 187.953125 110.015625 182.070312 68.941406 176.191406 27.871094 C 176.140625 26.957031 176.15625 26.183594 176.191406 25.300781 C 176.554688 15.789062 184.261719 8.066406 194.214844 8.066406 C 204.171875 8.066406 212.242188 15.785156 212.242188 25.300781 C 212.242188 26.273438 212.449219 27.980469 212.242188 29.335938 Z M 193.835938 151.089844 " fill-opacity="1" fill-rule="evenodd"/></g><path fill="#578ad6" d="M 160.285156 183.257812 C 168.71875 183.257812 175.558594 190.082031 175.558594 198.5 C 175.558594 206.917969 168.71875 213.746094 160.285156 213.746094 C 151.851562 213.746094 145.011719 206.917969 145.011719 198.5 C 145.011719 190.082031 151.851562 183.257812 160.285156 183.257812 Z M 160.285156 183.257812 " fill-opacity="1" fill-rule="evenodd"/><path fill="#578ad6" d="M 195.691406 162.214844 C 204.125 162.214844 210.964844 169.039062 210.964844 177.457031 C 210.964844 185.875 204.125 192.703125 195.691406 192.703125 C 187.257812 192.703125 180.417969 185.875 180.417969 177.457031 C 180.417969 169.039062 187.257812 162.214844 195.691406 162.214844 Z M 195.691406 162.214844 " fill-opacity="1" fill-rule="evenodd"/><path fill="#578ad6" d="M 177.308594 214.011719 C 171.429688 172.9375 165.546875 131.867188 159.664062 90.792969 C 159.617188 89.878906 159.632812 89.105469 159.664062 88.226562 C 160.03125 78.714844 167.738281 70.988281 177.691406 70.988281 C 187.648438 70.988281 195.71875 78.707031 195.71875 88.226562 C 195.71875 89.195312 195.925781 90.902344 195.71875 92.257812 Z M 177.308594 214.011719 " fill-opacity="1" fill-rule="evenodd"/><path fill="#578ad6" d="M 212.976562 188.832031 C 207.09375 147.757812 201.214844 106.683594 195.332031 65.613281 C 195.285156 64.699219 195.300781 63.925781 195.332031 63.042969 C 195.699219 53.53125 203.40625 45.808594 213.359375 45.808594 C 223.3125 45.808594 231.386719 53.527344 231.386719 63.042969 C 231.386719 64.011719 231.589844 65.71875 231.386719 67.078125 Z M 212.976562 188.832031 " fill-opacity="1" fill-rule="evenodd"/><path fill="#578ad6" d="M 179.429688 221 C 187.863281 221 194.703125 227.828125 194.703125 236.242188 C 194.703125 244.660156 187.863281 251.488281 179.429688 251.488281 C 170.992188 251.488281 164.152344 244.660156 164.152344 236.242188 C 164.152344 227.828125 170.992188 221 179.429688 221 Z M 179.429688 221 " fill-opacity="1" fill-rule="evenodd"/><path fill="#578ad6" d="M 214.832031 199.957031 C 223.265625 199.957031 230.105469 206.78125 230.105469 215.199219 C 230.105469 223.617188 223.265625 230.445312 214.832031 230.445312 C 206.398438 230.445312 199.558594 223.617188 199.558594 215.199219 C 199.558594 206.78125 206.398438 199.957031 214.832031 199.957031 Z M 214.832031 199.957031 " fill-opacity="1" fill-rule="evenodd"/><g clip-path="url(#c0a612917f)"><path fill="#578ad6" d="M 87.347656 309.164062 C 84.359375 315.144531 80.25 319.726562 75 322.898438 C 69.746094 326.074219 63.644531 327.660156 56.722656 327.660156 C 51.585938 327.660156 46.832031 326.667969 42.496094 324.695312 C 38.144531 322.722656 34.257812 319.808594 30.804688 315.910156 C 27.882812 312.691406 25.664062 309.019531 24.171875 304.902344 C 22.660156 300.796875 21.90625 296.390625 21.90625 291.695312 C 21.90625 286.933594 22.824219 282.414062 24.636719 278.136719 C 26.453125 273.871094 29.117188 269.976562 32.632812 266.46875 C 35.957031 263.214844 39.652344 260.746094 43.714844 259.078125 C 47.777344 257.394531 52.144531 256.5625 56.820312 256.5625 C 63.835938 256.5625 70.003906 258.214844 75.335938 261.53125 C 80.652344 264.847656 84.652344 269.542969 87.347656 275.617188 L 75.671875 275.617188 C 73.472656 272.589844 70.777344 270.296875 67.578125 268.757812 C 64.382812 267.234375 60.769531 266.46875 56.722656 266.46875 C 53.496094 266.46875 50.414062 267.074219 47.507812 268.292969 C 44.582031 269.511719 41.996094 271.292969 39.75 273.597656 C 37.386719 276.019531 35.558594 278.824219 34.242188 282.015625 C 32.921875 285.203125 32.265625 288.457031 32.265625 291.789062 C 32.265625 295.347656 32.859375 298.730469 34.046875 301.90625 C 35.234375 305.078125 36.953125 307.835938 39.1875 310.144531 C 41.53125 312.59375 44.246094 314.484375 47.3125 315.832031 C 50.398438 317.179688 53.527344 317.851562 56.722656 317.851562 C 60.640625 317.851562 64.175781 317.113281 67.324219 315.625 C 70.488281 314.132812 73.070312 311.984375 75.109375 309.164062 Z M 104.722656 291.789062 C 104.722656 295.347656 105.320312 298.730469 106.507812 301.902344 C 107.695312 305.078125 109.414062 307.835938 111.644531 310.140625 C 113.992188 312.59375 116.703125 314.484375 119.773438 315.832031 C 122.839844 317.179688 125.988281 317.851562 129.183594 317.851562 C 136.265625 317.851562 142.191406 315.335938 146.960938 310.316406 C 151.730469 305.285156 154.105469 299.050781 154.105469 291.597656 C 154.105469 288.441406 153.527344 285.410156 152.386719 282.558594 C 151.246094 279.6875 149.578125 277.046875 147.378906 274.640625 C 144.777344 271.851562 141.996094 269.800781 139.027344 268.46875 C 136.070312 267.140625 132.78125 266.46875 129.183594 266.46875 C 125.953125 266.46875 122.871094 267.078125 119.964844 268.292969 C 117.042969 269.511719 114.457031 271.292969 112.207031 273.597656 C 109.847656 276.019531 108.015625 278.824219 106.699219 282.015625 C 105.382812 285.203125 104.722656 288.457031 104.722656 291.792969 Z M 94.367188 291.695312 C 94.367188 286.902344 95.28125 282.367188 97.097656 278.070312 C 98.910156 273.777344 101.578125 269.914062 105.09375 266.46875 C 108.417969 263.214844 112.113281 260.746094 116.175781 259.078125 C 120.238281 257.394531 124.605469 256.5625 129.277344 256.5625 C 134.066406 256.5625 138.511719 257.394531 142.609375 259.078125 C 146.703125 260.746094 150.445312 263.246094 153.832031 266.5625 C 157.316406 269.976562 159.933594 273.792969 161.6875 278.023438 C 163.4375 282.253906 164.320312 286.804688 164.320312 291.695312 C 164.320312 296.535156 163.566406 301.007812 162.054688 305.09375 C 160.5625 309.179688 158.296875 312.851562 155.296875 316.105469 C 151.746094 319.933594 147.777344 322.804688 143.410156 324.742188 C 139.027344 326.683594 134.289062 327.660156 129.183594 327.660156 C 124.027344 327.660156 119.289062 326.667969 114.953125 324.695312 C 110.601562 322.722656 106.699219 319.808594 103.261719 315.910156 C 100.339844 312.691406 98.125 309.019531 96.632812 304.902344 C 95.121094 300.796875 94.367188 296.390625 94.367188 291.695312 Z M 183.238281 326.296875 L 173.3125 326.296875 L 173.3125 257.925781 L 183.527344 257.925781 L 217.171875 309.675781 L 216.703125 257.925781 L 226.484375 257.925781 L 226.484375 326.296875 L 216.976562 326.296875 L 182.578125 273.007812 Z M 245.691406 291.789062 C 245.691406 295.347656 246.285156 298.730469 247.472656 301.902344 C 248.664062 305.078125 250.378906 307.835938 252.613281 310.140625 C 254.957031 312.59375 257.671875 314.484375 260.738281 315.832031 C 263.804688 317.179688 266.953125 317.851562 270.148438 317.851562 C 277.230469 317.851562 283.15625 315.335938 287.925781 310.316406 C 292.695312 305.285156 295.074219 299.050781 295.074219 291.597656 C 295.074219 288.441406 294.496094 285.410156 293.355469 282.558594 C 292.214844 279.6875 290.546875 277.046875 288.34375 274.640625 C 285.742188 271.851562 282.964844 269.800781 279.996094 268.46875 C 277.039062 267.140625 273.746094 266.46875 270.148438 266.46875 C 266.921875 266.46875 263.839844 267.078125 260.933594 268.292969 C 258.007812 269.511719 255.421875 271.292969 253.175781 273.597656 C 250.8125 276.019531 248.984375 278.824219 247.667969 282.015625 C 246.351562 285.203125 245.691406 288.457031 245.691406 291.792969 Z M 235.332031 291.695312 C 235.332031 286.902344 236.25 282.367188 238.0625 278.070312 C 239.878906 273.777344 242.542969 269.914062 246.058594 266.46875 C 249.386719 263.214844 253.078125 260.746094 257.140625 259.078125 C 261.203125 257.394531 265.574219 256.5625 270.246094 256.5625 C 275.03125 256.5625 279.480469 257.394531 283.574219 259.078125 C 287.671875 260.746094 291.410156 263.246094 294.800781 266.5625 C 298.285156 269.976562 300.902344 273.792969 302.652344 278.023438 C 304.402344 282.253906 305.285156 286.804688 305.285156 291.695312 C 305.285156 296.535156 304.53125 301.007812 303.023438 305.09375 C 301.53125 309.179688 299.265625 312.851562 296.261719 316.105469 C 292.710938 319.933594 288.746094 322.804688 284.378906 324.742188 C 279.992188 326.683594 275.257812 327.660156 270.148438 327.660156 C 264.996094 327.660156 260.257812 326.667969 255.921875 324.695312 C 251.570312 322.722656 247.667969 319.808594 244.230469 315.910156 C 241.308594 312.691406 239.089844 309.019531 237.597656 304.902344 C 236.089844 300.796875 235.332031 296.390625 235.332031 291.695312 Z M 310.667969 306.582031 L 319.5625 306.582031 C 319.722656 310.125 320.769531 312.945312 322.710938 315.046875 C 324.652344 317.164062 327.191406 318.21875 330.292969 318.21875 C 333.710938 318.21875 336.441406 317.164062 338.496094 315.046875 C 340.550781 312.929688 341.582031 310.109375 341.582031 306.566406 C 341.582031 303.472656 340.824219 301.070312 339.316406 299.386719 C 337.824219 297.6875 334.660156 296.117188 329.855469 294.644531 C 329.617188 294.578125 329.183594 294.464844 328.589844 294.304688 C 322.855469 292.785156 318.695312 290.265625 316.125 286.757812 C 314.972656 285.21875 314.085938 283.582031 313.507812 281.851562 C 312.929688 280.105469 312.640625 278.261719 312.640625 276.292969 C 312.640625 270.425781 314.375 265.695312 317.859375 262.074219 C 321.347656 258.46875 325.90625 256.65625 331.558594 256.65625 C 336.792969 256.65625 341.019531 258.277344 344.230469 261.511719 C 347.457031 264.75 349.242188 269.191406 349.578125 274.832031 L 340.3125 274.832031 C 340.152344 272.109375 339.234375 269.914062 337.566406 268.230469 C 335.878906 266.546875 333.777344 265.714844 331.222656 265.714844 C 328.492188 265.714844 326.277344 266.640625 324.574219 268.5 C 322.855469 270.378906 322.003906 272.78125 322.003906 275.714844 C 322.003906 276.757812 322.164062 277.71875 322.46875 278.632812 C 322.792969 279.546875 323.273438 280.378906 323.933594 281.164062 C 325.28125 282.765625 328.171875 284.144531 332.585938 285.300781 C 334.625 285.828125 336.199219 286.292969 337.292969 286.660156 C 341.820312 288.34375 345.242188 290.8125 347.585938 294.035156 C 349.914062 297.253906 351.089844 301.117188 351.089844 305.636719 C 351.089844 312.242188 349.207031 317.5625 345.433594 321.601562 C 341.675781 325.640625 336.683594 327.660156 330.484375 327.660156 C 324.636719 327.660156 319.902344 325.71875 316.238281 321.855469 C 312.59375 317.996094 310.730469 312.898438 310.667969 306.582031 Z M 310.667969 306.582031 " fill-opacity="1" fill-rule="nonzero"/></g><g clip-path="url(#4c5a67e48c)"><path fill="#578ad6" d="M 29.84375 356.503906 C 29.84375 354.46875 30.445312 352.6875 31.648438 351.164062 C 32.855469 349.644531 34.355469 348.480469 36.160156 347.675781 C 37.960938 346.875 39.722656 346.472656 41.445312 346.472656 C 43.390625 346.472656 45.253906 346.875 47.03125 347.675781 C 48.8125 348.480469 50.242188 349.648438 51.324219 351.179688 C 52.410156 352.714844 52.949219 354.519531 52.949219 356.597656 C 52.949219 358.121094 52.640625 359.5 52.023438 360.734375 C 51.402344 361.96875 50.53125 363.027344 49.402344 363.914062 C 48.277344 364.796875 47.027344 365.460938 45.65625 365.902344 C 44.285156 366.347656 42.882812 366.566406 41.445312 366.566406 C 39.808594 366.566406 38.074219 366.179688 36.242188 365.410156 C 34.40625 364.636719 32.882812 363.492188 31.664062 361.96875 C 30.449219 360.445312 29.84375 358.625 29.84375 356.503906 Z M 32.828125 356.320312 C 32.828125 358.417969 33.242188 360.167969 34.070312 361.566406 C 34.898438 362.964844 35.988281 364.003906 37.335938 364.683594 C 38.683594 365.363281 40.054688 365.703125 41.445312 365.703125 C 42.925781 365.703125 44.324219 365.359375 45.640625 364.667969 C 46.957031 363.980469 48.011719 362.929688 48.804688 361.519531 C 49.601562 360.109375 50 358.398438 50 356.382812 C 50 353.542969 49.144531 351.324219 47.429688 349.730469 C 45.71875 348.136719 43.746094 347.339844 41.511719 347.339844 C 39.941406 347.296875 38.496094 347.636719 37.167969 348.355469 C 35.84375 349.078125 34.789062 350.121094 34.003906 351.488281 C 33.21875 352.859375 32.828125 354.46875 32.828125 356.320312 Z M 99.925781 349.128906 C 99.925781 348.53125 99.714844 348.128906 99.296875 347.925781 C 98.984375 347.820312 98.515625 347.761719 97.886719 347.738281 C 97.257812 347.71875 96.941406 347.605469 96.941406 347.398438 C 96.941406 347.113281 97.164062 346.96875 97.605469 346.96875 C 97.738281 346.96875 98.132812 346.988281 98.796875 347.03125 C 99.460938 347.070312 100.082031 347.089844 100.65625 347.089844 L 102.015625 347.089844 C 102.410156 347.089844 103.085938 347.070312 104.035156 347.03125 C 104.988281 346.988281 105.695312 346.96875 106.15625 346.96875 C 107.683594 346.96875 108.84375 347.132812 109.640625 347.460938 C 110.878906 347.914062 111.785156 348.578125 112.359375 349.453125 C 112.933594 350.328125 113.242188 351.289062 113.285156 352.339844 C 113.285156 353.367188 112.984375 354.308594 112.375 355.164062 C 111.769531 356.015625 110.945312 356.679688 109.90625 357.152344 C 108.867188 357.625 107.804688 357.863281 106.722656 357.863281 C 106.367188 357.863281 105.753906 357.722656 104.882812 357.445312 C 104.007812 357.167969 103.375 357.03125 102.976562 357.03125 C 102.710938 357.03125 102.578125 357.308594 102.578125 357.863281 L 102.578125 363.972656 C 102.578125 364.570312 102.710938 364.992188 102.976562 365.238281 C 103.21875 365.425781 103.761719 365.539062 104.601562 365.578125 C 105.285156 365.578125 105.628906 365.703125 105.628906 365.949219 C 105.628906 366.15625 105.375 366.257812 104.867188 366.257812 C 103.273438 366.257812 101.988281 366.261719 101.003906 366.273438 C 100.019531 366.285156 98.929688 366.300781 97.738281 366.320312 C 97.207031 366.320312 96.941406 366.195312 96.941406 365.949219 C 96.941406 365.683594 97.285156 365.53125 97.96875 365.5 C 98.652344 365.472656 99.074219 365.425781 99.230469 365.363281 C 99.691406 365.199219 99.925781 364.757812 99.925781 364.035156 Z M 102.578125 349.621094 L 102.578125 355.765625 C 102.578125 356.011719 102.859375 356.273438 103.425781 356.550781 C 103.988281 356.828125 104.898438 356.96875 106.160156 356.96875 C 107.375 356.96875 108.390625 356.480469 109.210938 355.5 C 110.027344 354.523438 110.4375 353.46875 110.4375 352.339844 C 110.4375 350.855469 109.898438 349.683594 108.828125 348.820312 C 107.757812 347.957031 106.433594 347.523438 104.867188 347.523438 C 104.359375 347.523438 103.949219 347.554688 103.640625 347.617188 C 102.933594 347.882812 102.578125 348.550781 102.578125 349.621094 Z M 164.871094 348.542969 C 164.871094 348.234375 164.808594 348.03125 164.6875 347.941406 C 164.566406 347.847656 164.328125 347.800781 163.976562 347.800781 L 162.914062 347.800781 C 161.34375 347.800781 160.207031 348.027344 159.5 348.480469 C 158.902344 348.851562 158.347656 349.410156 157.839844 350.164062 C 157.332031 350.914062 157 351.300781 156.847656 351.320312 C 156.625 351.320312 156.515625 351.175781 156.515625 350.886719 L 156.515625 350.640625 L 158.074219 346.011719 C 158.140625 345.804688 158.25 345.703125 158.402344 345.703125 C 158.648438 345.703125 158.769531 345.886719 158.769531 346.257812 C 158.789062 346.566406 158.945312 346.761719 159.234375 346.84375 C 159.519531 346.925781 159.929688 346.96875 160.460938 346.96875 L 172.894531 346.96875 C 173.578125 346.96875 174.03125 346.925781 174.253906 346.84375 C 174.472656 346.761719 174.648438 346.527344 174.78125 346.136719 C 174.847656 345.847656 174.980469 345.703125 175.179688 345.703125 C 175.421875 345.703125 175.546875 345.898438 175.546875 346.289062 L 175.347656 350.640625 C 175.347656 350.949219 175.226562 351.136719 174.980469 351.195312 C 174.804688 351.113281 174.648438 350.929688 174.519531 350.640625 C 174.140625 349.550781 173.800781 348.804688 173.488281 348.402344 C 173.179688 348.003906 172.460938 347.800781 171.335938 347.800781 L 168.550781 347.800781 C 168.019531 347.800781 167.703125 347.867188 167.605469 348.003906 C 167.503906 348.136719 167.453125 348.410156 167.453125 348.820312 L 167.453125 363.972656 C 167.453125 364.777344 167.777344 365.261719 168.417969 365.425781 C 168.683594 365.507812 169.019531 365.550781 169.429688 365.550781 C 169.835938 365.550781 170.117188 365.570312 170.273438 365.609375 C 170.429688 365.652344 170.507812 365.765625 170.507812 365.949219 C 170.507812 366.195312 170.285156 366.320312 169.84375 366.320312 C 169.753906 366.320312 169.335938 366.300781 168.582031 366.257812 C 167.832031 366.21875 167.113281 366.195312 166.429688 366.195312 C 165.785156 366.195312 165.058594 366.21875 164.238281 366.257812 C 163.421875 366.300781 162.925781 366.320312 162.746094 366.320312 C 162.171875 366.320312 161.886719 366.175781 161.886719 365.886719 C 161.886719 365.664062 162.226562 365.550781 162.914062 365.550781 C 163.621094 365.46875 164.125 365.34375 164.421875 365.179688 C 164.71875 365.015625 164.871094 364.632812 164.871094 364.035156 Z M 221.292969 349.3125 C 221.292969 348.757812 221.167969 348.378906 220.914062 348.171875 C 220.65625 347.964844 220.222656 347.863281 219.601562 347.863281 C 219.007812 347.800781 218.640625 347.753906 218.507812 347.722656 C 218.375 347.691406 218.308594 347.585938 218.308594 347.398438 C 218.308594 347.113281 218.554688 346.96875 219.039062 346.96875 C 219.214844 346.96875 219.648438 346.988281 220.332031 347.03125 C 221.019531 347.070312 221.601562 347.089844 222.089844 347.089844 L 223.25 347.089844 C 223.691406 347.089844 224.246094 347.070312 224.90625 347.03125 C 225.570312 346.988281 225.992188 346.96875 226.167969 346.96875 C 226.675781 346.96875 226.929688 347.089844 226.929688 347.339844 C 226.929688 347.605469 226.585938 347.75 225.902344 347.769531 C 225.21875 347.789062 224.742188 347.882812 224.476562 348.046875 C 224.125 348.253906 223.945312 348.675781 223.945312 349.3125 L 223.945312 363.972656 C 223.945312 364.695312 224.144531 365.136719 224.542969 365.300781 C 224.742188 365.40625 225.105469 365.472656 225.636719 365.5 C 226.167969 365.53125 226.527344 365.5625 226.714844 365.59375 C 226.902344 365.625 226.996094 365.742188 226.996094 365.949219 C 226.996094 366.15625 226.808594 366.257812 226.433594 366.257812 C 224.753906 366.257812 223.394531 366.261719 222.355469 366.273438 C 221.316406 366.285156 220.167969 366.300781 218.90625 366.320312 C 218.507812 366.320312 218.308594 366.195312 218.308594 365.949219 C 218.308594 365.703125 218.574219 365.578125 219.105469 365.578125 C 219.945312 365.515625 220.519531 365.433594 220.832031 365.332031 C 221.140625 365.230469 221.292969 364.816406 221.292969 364.097656 Z M 289.121094 361.691406 L 288.921875 364.375 C 288.902344 364.929688 288.09375 365.433594 286.503906 365.886719 C 284.910156 366.339844 283.34375 366.566406 281.792969 366.566406 C 279.007812 366.566406 276.523438 365.617188 274.335938 363.710938 C 272.148438 361.808594 271.050781 359.40625 271.050781 356.503906 C 271.050781 354.632812 271.59375 352.929688 272.675781 351.398438 C 273.761719 349.863281 275.207031 348.660156 277.019531 347.785156 C 278.832031 346.910156 280.757812 346.472656 282.789062 346.472656 C 283.828125 346.472656 285.050781 346.613281 286.453125 346.890625 C 287.855469 347.167969 288.589844 347.554688 288.65625 348.046875 L 288.988281 350.824219 C 288.988281 351.09375 288.878906 351.257812 288.65625 351.320312 C 288.324219 351.238281 288.027344 350.886719 287.761719 350.269531 C 287.296875 349.285156 286.574219 348.546875 285.589844 348.0625 C 284.609375 347.582031 283.539062 347.339844 282.390625 347.339844 C 280.933594 347.339844 279.707031 347.589844 278.710938 348.09375 C 277.71875 348.597656 276.789062 349.367188 275.925781 350.394531 C 275.308594 351.09375 274.839844 352.007812 274.519531 353.140625 C 274.195312 354.273438 274.035156 355.375 274.035156 356.445312 C 274.035156 357.882812 274.375 359.324219 275.046875 360.765625 C 275.722656 362.203125 276.683594 363.398438 277.933594 364.34375 C 279.179688 365.292969 280.578125 365.765625 282.125 365.765625 C 283.210938 365.765625 284.105469 365.617188 284.8125 365.316406 C 285.519531 365.019531 286.128906 364.578125 286.636719 363.988281 C 287.144531 363.402344 287.675781 362.597656 288.226562 361.566406 C 288.46875 361.113281 288.65625 360.886719 288.789062 360.886719 C 289.011719 360.886719 289.121094 361.011719 289.121094 361.257812 Z M 338.746094 359.191406 C 338.460938 359.191406 338.277344 359.242188 338.199219 359.34375 C 338.125 359.449219 337.964844 359.789062 337.71875 360.363281 L 336.425781 363.296875 C 336.339844 363.523438 336.25 363.882812 336.160156 364.375 C 336.207031 364.972656 336.613281 365.34375 337.386719 365.488281 C 337.609375 365.527344 337.90625 365.550781 338.285156 365.550781 C 338.660156 365.550781 338.917969 365.570312 339.0625 365.609375 C 339.207031 365.652344 339.277344 365.765625 339.277344 365.949219 C 339.277344 366.195312 338.992188 366.320312 338.417969 366.320312 C 338.238281 366.320312 337.839844 366.300781 337.222656 366.257812 C 336.601562 366.21875 336.09375 366.195312 335.699219 366.195312 C 335.167969 366.195312 334.535156 366.21875 333.808594 366.257812 C 333.078125 366.300781 332.613281 366.320312 332.414062 366.320312 C 331.929688 366.320312 331.683594 366.21875 331.683594 366.011719 C 331.683594 365.765625 332.015625 365.621094 332.679688 365.578125 C 333.34375 365.539062 333.796875 365.445312 334.039062 365.300781 C 334.371094 365.097656 334.734375 364.589844 335.132812 363.789062 L 341.996094 347.152344 C 342.171875 346.699219 342.339844 346.476562 342.492188 346.476562 C 342.691406 346.476562 342.890625 346.722656 343.089844 347.214844 L 350.285156 363.851562 C 350.59375 364.613281 350.953125 365.082031 351.363281 365.253906 C 351.773438 365.429688 352.214844 365.542969 352.691406 365.59375 C 353.164062 365.644531 353.402344 365.785156 353.402344 366.011719 C 353.402344 366.175781 353.203125 366.257812 352.804688 366.257812 C 351.035156 366.257812 349.601562 366.261719 348.496094 366.273438 C 347.390625 366.285156 346.175781 366.300781 344.847656 366.320312 C 344.496094 366.320312 344.316406 366.195312 344.316406 365.949219 C 344.316406 365.703125 344.703125 365.5625 345.476562 365.53125 C 346.25 365.5 346.703125 365.464844 346.835938 365.425781 C 347.148438 365.28125 347.300781 365.035156 347.300781 364.683594 C 347.300781 364.273438 347.191406 363.808594 346.96875 363.296875 L 345.476562 359.992188 C 345.324219 359.601562 345.195312 359.371094 345.097656 359.296875 C 344.996094 359.226562 344.738281 359.191406 344.316406 359.191406 Z M 339.84375 358.296875 L 343.753906 358.296875 C 344.042969 358.296875 344.25 358.316406 344.386719 358.355469 C 344.605469 358.355469 344.714844 358.296875 344.714844 358.171875 C 344.714844 358.152344 344.5625 357.75 344.25 356.96875 L 342.195312 352.214844 C 341.953125 351.535156 341.753906 351.195312 341.597656 351.195312 C 341.421875 351.195312 341.234375 351.496094 341.035156 352.089844 L 338.945312 357.214844 C 338.792969 357.585938 338.683594 357.902344 338.617188 358.171875 C 338.617188 358.234375 338.746094 358.292969 339.011719 358.355469 C 339.191406 358.316406 339.46875 358.292969 339.84375 358.292969 Z M 339.84375 358.296875 " fill-opacity="1" fill-rule="nonzero"/></g></svg>